<mxfile host="app.diagrams.net" modified="2024-06-21T14:55:13.950Z" agent="Mozilla/5.0 (X11; Ubuntu; Linux x86_64; rv:127.0) Gecko/20100101 Firefox/127.0" etag="FlrNDj7uJF0ERgfb3OZI" version="24.5.5" type="github">
  <diagram id="C5RBs43oDa-KdzZeNtuy" name="Page-1">
    <mxGraphModel dx="2314" dy="1366" grid="1" gridSize="10" guides="1" tooltips="1" connect="1" arrows="1" fold="1" page="1" pageScale="1" pageWidth="827" pageHeight="1169" math="0" shadow="0">
      <root>
        <mxCell id="WIyWlLk6GJQsqaUBKTNV-0" />
        <mxCell id="WIyWlLk6GJQsqaUBKTNV-1" parent="WIyWlLk6GJQsqaUBKTNV-0" />
        <mxCell id="FwMlWWRZnVb2PRxpXw4a-0" value="EEG_Data" style="swimlane;fontStyle=1;align=center;verticalAlign=top;childLayout=stackLayout;horizontal=1;startSize=26;horizontalStack=0;resizeParent=1;resizeParentMax=0;resizeLast=0;collapsible=1;marginBottom=0;whiteSpace=wrap;html=1;" vertex="1" parent="WIyWlLk6GJQsqaUBKTNV-1">
          <mxGeometry x="50" y="10" width="850" height="410" as="geometry" />
        </mxCell>
        <mxCell id="FwMlWWRZnVb2PRxpXw4a-1" value="&amp;nbsp; _id_subject&amp;nbsp;&amp;nbsp;&amp;nbsp; &amp;nbsp; &amp;nbsp; &amp;nbsp; &amp;nbsp; &amp;nbsp; &amp;nbsp; &amp;nbsp;&amp;nbsp;&amp;nbsp; # Identificador del sujeto. Número entero que identifica el orden de carga del sujeto&lt;br&gt;&amp;nbsp; _class_subject &amp;nbsp; &amp;nbsp; &amp;nbsp; &amp;nbsp; &amp;nbsp;&amp;nbsp;&amp;nbsp;&amp;nbsp;&amp;nbsp; # Identidicará si el sujeto es Young/Old. Valido para los procesos de clasificación&lt;br&gt;&amp;nbsp; _name_subject&amp;nbsp; &amp;nbsp; &amp;nbsp;&amp;nbsp; &amp;nbsp;&amp;nbsp;&amp;nbsp;&amp;nbsp;&amp;nbsp;&amp;nbsp; # Nombre de los sujectos leidos, es igual al nombre del fichero que tiene lso datos del sujeto&lt;br&gt;&amp;nbsp; _raw_data&amp;nbsp;&amp;nbsp;&amp;nbsp;&amp;nbsp;&amp;nbsp; &amp;nbsp; &amp;nbsp; &amp;nbsp; &amp;nbsp; &amp;nbsp; &amp;nbsp;&amp;nbsp; &amp;nbsp;&amp;nbsp; # Almacenamos el conjunto de EEG channels sin procesar&lt;br&gt;&amp;nbsp; _fraw_data&amp;nbsp;&amp;nbsp;&amp;nbsp; &amp;nbsp; &amp;nbsp; &amp;nbsp; &amp;nbsp; &amp;nbsp; &amp;nbsp; &amp;nbsp; &amp;nbsp;&amp;nbsp; # Almacenamos el conjunto de EEG channels preprocedados (100HZ-mantenemos frezfreq gamma) y un paso alto 0.1&lt;br&gt;&amp;nbsp; _info&amp;nbsp;&amp;nbsp;&amp;nbsp;&amp;nbsp;&amp;nbsp;&amp;nbsp;&amp;nbsp;&amp;nbsp;&amp;nbsp;&amp;nbsp;&amp;nbsp;&amp;nbsp;&amp;nbsp;&amp;nbsp;&amp;nbsp;&amp;nbsp;&amp;nbsp;&amp;nbsp;&amp;nbsp;&amp;nbsp;&amp;nbsp;&amp;nbsp;&amp;nbsp;&amp;nbsp;&amp;nbsp;&amp;nbsp;&amp;nbsp; &amp;nbsp;&amp;nbsp; # Almacenamos el objeto info asociado a los canales del subject. Mantiene los nombres de los canales y picks&lt;br&gt;&amp;nbsp; _all_channels&amp;nbsp;&amp;nbsp;&amp;nbsp;&amp;nbsp;&amp;nbsp;&amp;nbsp;&amp;nbsp;&amp;nbsp;&amp;nbsp;&amp;nbsp;&amp;nbsp;&amp;nbsp;&amp;nbsp;&amp;nbsp;&amp;nbsp;&amp;nbsp; # Lista de todos los canales presentes&lt;br&gt;&amp;nbsp; _eeg_channels&amp;nbsp;&amp;nbsp;&amp;nbsp;&amp;nbsp;&amp;nbsp;&amp;nbsp;&amp;nbsp;&amp;nbsp;&amp;nbsp;&amp;nbsp;&amp;nbsp; &amp;nbsp; # canales estandares de los electrodos eeg&lt;br&gt;&amp;nbsp; _eog_channels&amp;nbsp;&amp;nbsp;&amp;nbsp;&amp;nbsp;&amp;nbsp;&amp;nbsp;&amp;nbsp;&amp;nbsp;&amp;nbsp;&amp;nbsp;&amp;nbsp; &amp;nbsp; # canales estandares de los electrodos eog&lt;br&gt;&amp;nbsp; _exg_channels&amp;nbsp;&amp;nbsp;&amp;nbsp;&amp;nbsp;&amp;nbsp;&amp;nbsp;&amp;nbsp;&amp;nbsp;&amp;nbsp;&amp;nbsp;&amp;nbsp;&amp;nbsp;&amp;nbsp; # canales estandares de los electrodos exg&lt;br&gt;&amp;nbsp; _sr&amp;nbsp;&amp;nbsp;&amp;nbsp;&amp;nbsp;&amp;nbsp;&amp;nbsp;&amp;nbsp;&amp;nbsp;&amp;nbsp;&amp;nbsp;&amp;nbsp;&amp;nbsp;&amp;nbsp;&amp;nbsp;&amp;nbsp;&amp;nbsp;&amp;nbsp;&amp;nbsp;&amp;nbsp;&amp;nbsp;&amp;nbsp;&amp;nbsp;&amp;nbsp;&amp;nbsp;&amp;nbsp;&amp;nbsp;&amp;nbsp;&amp;nbsp;&amp;nbsp;&amp;nbsp;&amp;nbsp;&amp;nbsp; # Frecuencia de muestreo de los datos originales&lt;br&gt;&amp;nbsp; _epochs&amp;nbsp;&amp;nbsp;&amp;nbsp;&amp;nbsp;&amp;nbsp;&amp;nbsp;&amp;nbsp;&amp;nbsp;&amp;nbsp;&amp;nbsp;&amp;nbsp;&amp;nbsp;&amp;nbsp;&amp;nbsp;&amp;nbsp;&amp;nbsp;&amp;nbsp;&amp;nbsp;&amp;nbsp;&amp;nbsp;&amp;nbsp; &amp;nbsp; # Enventanado de las señales de cada canal&lt;br&gt;&amp;nbsp; _filepath&amp;nbsp;&amp;nbsp;&amp;nbsp;&amp;nbsp;&amp;nbsp;&amp;nbsp;&amp;nbsp;&amp;nbsp;&amp;nbsp;&amp;nbsp;&amp;nbsp;&amp;nbsp;&amp;nbsp;&amp;nbsp;&amp;nbsp;&amp;nbsp;&amp;nbsp;&amp;nbsp;&amp;nbsp;&amp;nbsp;&amp;nbsp;&amp;nbsp;&amp;nbsp; # Directorio donde se serializa/deserializa en disco las señales del EEG en crudo&lt;br&gt;&amp;nbsp; _DEBUG&amp;nbsp;&amp;nbsp;&amp;nbsp;&amp;nbsp;&amp;nbsp;&amp;nbsp;&amp;nbsp;&amp;nbsp;&amp;nbsp;&amp;nbsp;&amp;nbsp;&amp;nbsp;&amp;nbsp;&amp;nbsp;&amp;nbsp;&amp;nbsp;&amp;nbsp;&amp;nbsp;&amp;nbsp;&amp;nbsp;&amp;nbsp;&amp;nbsp; # Parametrizamos las salidas de debug" style="text;strokeColor=none;fillColor=none;align=left;verticalAlign=top;spacingLeft=4;spacingRight=4;overflow=hidden;rotatable=0;points=[[0,0.5],[1,0.5]];portConstraint=eastwest;whiteSpace=wrap;html=1;" vertex="1" parent="FwMlWWRZnVb2PRxpXw4a-0">
          <mxGeometry y="26" width="850" height="214" as="geometry" />
        </mxCell>
        <mxCell id="FwMlWWRZnVb2PRxpXw4a-2" value="" style="line;strokeWidth=1;fillColor=none;align=left;verticalAlign=middle;spacingTop=-1;spacingLeft=3;spacingRight=3;rotatable=0;labelPosition=right;points=[];portConstraint=eastwest;strokeColor=inherit;" vertex="1" parent="FwMlWWRZnVb2PRxpXw4a-0">
          <mxGeometry y="240" width="850" height="10" as="geometry" />
        </mxCell>
        <mxCell id="FwMlWWRZnVb2PRxpXw4a-3" value="&lt;div&gt;def __init__(self, name_subject, id_subject, class_subject, data, DEBUG = False, sr = 512, filepath = &#39;./eeg_path&#39;)&amp;nbsp; #Creaciónb objeto&lt;br&gt;&lt;/div&gt;&lt;div&gt;read_random_eeg_files(directory, entity_subject, count_subj, verbose=True)&amp;nbsp;&amp;nbsp;&amp;nbsp;&amp;nbsp;&amp;nbsp;&amp;nbsp; # Lectura aleatoria de los datos EEG de cada sujeto &lt;br&gt;&lt;/div&gt;&lt;div&gt;read_eeg_files(directory, entity_subject, count_subj, verbose=True) # Lectura lineal de los datos EEG de cada sujeto&lt;br&gt;&lt;/div&gt;&lt;div&gt;def assign_channel_names (self, all_channels, eeg_channels, eog_channels, exg_channels, exg_type = &quot;ecg&quot;)&amp;nbsp; 3asignación tipo canales al objeto&lt;br&gt;&lt;/div&gt;&lt;div&gt;def channel_filtered (self, cut_low = 100, cut_hi = 0.2 ) # Filtrado base datos EEG. Sólo realiza un filtro paso alto y otro paso bajo&lt;br&gt;&lt;/div&gt;&lt;div&gt;def resample_mne (self, n_decim = 2)&amp;nbsp;&amp;nbsp;&amp;nbsp;&amp;nbsp;&amp;nbsp;&amp;nbsp;&amp;nbsp; # Remuestrear las señales de los datos EEG con API mne&lt;br&gt;&lt;/div&gt;&lt;div&gt;def resample_scipy (self, n_decim = 2)&amp;nbsp;&amp;nbsp;&amp;nbsp;&amp;nbsp;&amp;nbsp;&amp;nbsp; # Remuestrear las señales de los datos EEG con API scipy&lt;br&gt;&lt;/div&gt;&lt;div&gt;def remove_ica_components_artifact(self)&amp;nbsp; # Eliminación artefactos con ICA en api mne. SEelimina lso artefactos con eog, ecg, emg y por amplitud&lt;br&gt;&lt;/div&gt;" style="text;strokeColor=none;fillColor=none;align=left;verticalAlign=top;spacingLeft=4;spacingRight=4;overflow=hidden;rotatable=0;points=[[0,0.5],[1,0.5]];portConstraint=eastwest;whiteSpace=wrap;html=1;" vertex="1" parent="FwMlWWRZnVb2PRxpXw4a-0">
          <mxGeometry y="250" width="850" height="160" as="geometry" />
        </mxCell>
        <mxCell id="FwMlWWRZnVb2PRxpXw4a-10" value="MyESN" style="swimlane;fontStyle=1;align=center;verticalAlign=top;childLayout=stackLayout;horizontal=1;startSize=26;horizontalStack=0;resizeParent=1;resizeParentMax=0;resizeLast=0;collapsible=1;marginBottom=0;whiteSpace=wrap;html=1;" vertex="1" parent="WIyWlLk6GJQsqaUBKTNV-1">
          <mxGeometry x="50" y="560" width="590" height="470" as="geometry" />
        </mxCell>
        <mxCell id="FwMlWWRZnVb2PRxpXw4a-11" value="init_type&amp;nbsp;&amp;nbsp;&amp;nbsp;&amp;nbsp;&amp;nbsp;&amp;nbsp;&amp;nbsp;&amp;nbsp;&amp;nbsp;&amp;nbsp;&amp;nbsp;&amp;nbsp;&amp;nbsp; &lt;br&gt;&lt;div&gt;init_std&amp;nbsp;&amp;nbsp;&amp;nbsp;&amp;nbsp;&amp;nbsp;&amp;nbsp;&amp;nbsp;&amp;nbsp; &amp;nbsp; &amp;nbsp; &amp;nbsp; &amp;nbsp; &amp;nbsp;&amp;nbsp; # Desviación estándar para la inicializar de los pesos iniciales y del RC &amp;nbsp;&amp;nbsp;&amp;nbsp;&amp;nbsp;&amp;nbsp; &lt;/div&gt;init_mean&amp;nbsp;&amp;nbsp;&amp;nbsp;&amp;nbsp;&amp;nbsp;&amp;nbsp;&amp;nbsp;&amp;nbsp;&amp;nbsp;&amp;nbsp;&amp;nbsp;&amp;nbsp;&amp;nbsp;&amp;nbsp;&amp;nbsp; #&amp;nbsp; Media para la inicialización de los pesos iniciales y RC&lt;br&gt;connectivity&amp;nbsp;&amp;nbsp;&amp;nbsp;&amp;nbsp;&amp;nbsp;&amp;nbsp;&amp;nbsp;&amp;nbsp;&amp;nbsp;&amp;nbsp;&amp;nbsp;&amp;nbsp; # Conectividad de las neuronas de la capa interna del RC&lt;br&gt;input_size&amp;nbsp;&amp;nbsp;&amp;nbsp;&amp;nbsp;&amp;nbsp;&amp;nbsp;&amp;nbsp;&amp;nbsp;&amp;nbsp;&amp;nbsp;&amp;nbsp;&amp;nbsp;&amp;nbsp;&amp;nbsp; # Tamaño del vector de entrada al RC = Número de canales&lt;br&gt;nonlinearity&amp;nbsp;&amp;nbsp;&amp;nbsp;&amp;nbsp;&amp;nbsp;&amp;nbsp;&amp;nbsp;&amp;nbsp;&amp;nbsp;&amp;nbsp;&amp;nbsp;&amp;nbsp; # Tipo de función de activación a aplicar&lt;br&gt;use_input_bias&amp;nbsp;&amp;nbsp;&amp;nbsp;&amp;nbsp;&amp;nbsp;&amp;nbsp; # si se aplica o no bias a la capa de entrada &amp;nbsp; &lt;br&gt;use_input_layer&amp;nbsp;&amp;nbsp;&amp;nbsp;&amp;nbsp;&amp;nbsp; # Si se usa una capa lineal de entrada o no &amp;nbsp; &lt;br&gt;use_output_bias&amp;nbsp;&amp;nbsp;&amp;nbsp;&amp;nbsp; # Si se usa bías en la capa de salida del estado del RC &amp;nbsp;&amp;nbsp; &lt;br&gt;&lt;div&gt;reservoir_size&amp;nbsp;&amp;nbsp;&amp;nbsp;&amp;nbsp;&amp;nbsp;&amp;nbsp;&amp;nbsp;&amp;nbsp; # Número de neuronas de la capa interna del RC&lt;/div&gt;&lt;div&gt;spectral_radius&amp;nbsp;&amp;nbsp;&amp;nbsp;&amp;nbsp;&amp;nbsp;&amp;nbsp; # Radio espectral para normalizar la matriz de conexión de neuronas capa interna &amp;nbsp; &lt;br&gt;&lt;/div&gt;input_scaling&amp;nbsp;&amp;nbsp;&amp;nbsp;&amp;nbsp;&amp;nbsp;&amp;nbsp;&amp;nbsp;&amp;nbsp;&amp;nbsp; # Porcentaje escalado valores de entrada &lt;br&gt;plasticity_synaptic&amp;nbsp; # Tipo de plasticidad sináptica. NO APLICABLE. Poner None &amp;nbsp; &lt;br&gt;&lt;div&gt;plasticity_intrinsic &amp;nbsp; # Tipo de plasticidad intrínseca. No aplicable, poner None &lt;br&gt;&lt;/div&gt;&lt;div&gt;new_activation_function # Nueva función activación para&amp;nbsp;plasticidad sináptica&lt;br&gt;&lt;/div&gt;excitability_factor&amp;nbsp;&amp;nbsp;&amp;nbsp;&amp;nbsp; # Factor excitabilidad para plasticidad sináptica&lt;br&gt;leak&amp;nbsp;&amp;nbsp;&amp;nbsp;&amp;nbsp;&amp;nbsp;&amp;nbsp;&amp;nbsp;&amp;nbsp;&amp;nbsp;&amp;nbsp;&amp;nbsp;&amp;nbsp;&amp;nbsp;&amp;nbsp;&amp;nbsp;&amp;nbsp;&amp;nbsp;&amp;nbsp;&amp;nbsp;&amp;nbsp;&amp;nbsp;&amp;nbsp;&amp;nbsp;&amp;nbsp;&amp;nbsp; # Parámetro fuga para calcular el estado de las neuronas de la capa interna del RC&lt;br&gt;noise_level&amp;nbsp;&amp;nbsp;&amp;nbsp;&amp;nbsp;&amp;nbsp;&amp;nbsp;&amp;nbsp;&amp;nbsp;&amp;nbsp;&amp;nbsp;&amp;nbsp;&amp;nbsp;&amp;nbsp; # Ruido asociado al estado de las neuronas internas del RC&lt;br&gt;learning_rate&amp;nbsp;&amp;nbsp;&amp;nbsp;&amp;nbsp;&amp;nbsp;&amp;nbsp;&amp;nbsp;&amp;nbsp;&amp;nbsp;&amp;nbsp; # Valor del coeficiente aprendizaje para capa salida del RC&lt;br&gt;circle&amp;nbsp;&amp;nbsp;&amp;nbsp;&amp;nbsp;&amp;nbsp;&amp;nbsp;&amp;nbsp;&amp;nbsp;&amp;nbsp;&amp;nbsp;&amp;nbsp;&amp;nbsp;&amp;nbsp;&amp;nbsp;&amp;nbsp;&amp;nbsp;&amp;nbsp;&amp;nbsp;&amp;nbsp;&amp;nbsp;&amp;nbsp;&amp;nbsp;&amp;nbsp; # Si se implementa una conexión circulas de las neuronas de la capa interna del RC&lt;br&gt;theta_m&amp;nbsp;&amp;nbsp;&amp;nbsp;&amp;nbsp;&amp;nbsp;&amp;nbsp;&amp;nbsp;&amp;nbsp;&amp;nbsp;&amp;nbsp;&amp;nbsp;&amp;nbsp;&amp;nbsp;&amp;nbsp;&amp;nbsp;&amp;nbsp;&amp;nbsp;&amp;nbsp; # Parámetro para la pesticida sináptica" style="text;strokeColor=none;fillColor=none;align=left;verticalAlign=top;spacingLeft=4;spacingRight=4;overflow=hidden;rotatable=0;points=[[0,0.5],[1,0.5]];portConstraint=eastwest;whiteSpace=wrap;html=1;" vertex="1" parent="FwMlWWRZnVb2PRxpXw4a-10">
          <mxGeometry y="26" width="590" height="314" as="geometry" />
        </mxCell>
        <mxCell id="FwMlWWRZnVb2PRxpXw4a-12" value="" style="line;strokeWidth=1;fillColor=none;align=left;verticalAlign=middle;spacingTop=-1;spacingLeft=3;spacingRight=3;rotatable=0;labelPosition=right;points=[];portConstraint=eastwest;strokeColor=inherit;" vertex="1" parent="FwMlWWRZnVb2PRxpXw4a-10">
          <mxGeometry y="340" width="590" height="8" as="geometry" />
        </mxCell>
        <mxCell id="FwMlWWRZnVb2PRxpXw4a-13" value="&lt;div&gt;def __init__ (self, config)&amp;nbsp;&amp;nbsp;&amp;nbsp;&amp;nbsp;&amp;nbsp;&amp;nbsp;&amp;nbsp;&amp;nbsp;&amp;nbsp;&amp;nbsp;&amp;nbsp;&amp;nbsp;&amp;nbsp;&amp;nbsp;&amp;nbsp; ## Inicialización objetos y parametros entrada&lt;br&gt;&lt;/div&gt;&lt;div&gt;def forward (self, input_data, reservoir_state, t) # Actualización estado neuronas capa interna del RC&lt;br&gt;&lt;/div&gt;&lt;div&gt;def _f_nonlinearity(self, rc_data)&amp;nbsp;&amp;nbsp;&amp;nbsp;&amp;nbsp;&amp;nbsp;&amp;nbsp;&amp;nbsp;&amp;nbsp;&amp;nbsp;&amp;nbsp;&amp;nbsp;&amp;nbsp; # Aplicar función activación&lt;br&gt;&lt;/div&gt;&lt;div&gt;def _spectral_reservoir_weights_circ (self, n_internal_units, spectral_radius) # inicialización circular pesos&lt;br&gt;&lt;/div&gt;&lt;div&gt;def _spectral_reservoir_weights (self) # inicialización pesos capa interna RC&lt;br&gt;&lt;/div&gt;&lt;div&gt;def _initialize_weights (self)&amp;nbsp;&amp;nbsp;&amp;nbsp;&amp;nbsp;&amp;nbsp;&amp;nbsp;&amp;nbsp;&amp;nbsp; # Inicializa peos capa entrada y capa interna del RC&lt;br&gt;&lt;/div&gt;&lt;div&gt;def plot_spectral_graph (self)&amp;nbsp;&amp;nbsp;&amp;nbsp;&amp;nbsp;&amp;nbsp;&amp;nbsp; # Muetra la conectividad neuronal de la capa interna del RC&lt;br&gt;&lt;/div&gt;&lt;div&gt;&lt;br&gt;&lt;/div&gt;&lt;div&gt;&lt;br&gt;&lt;/div&gt;&lt;div&gt;&lt;br&gt;&lt;/div&gt;&lt;div&gt;&lt;br&gt;&lt;/div&gt;&lt;div&gt;&lt;br&gt;&lt;/div&gt;" style="text;strokeColor=none;fillColor=none;align=left;verticalAlign=top;spacingLeft=4;spacingRight=4;overflow=hidden;rotatable=0;points=[[0,0.5],[1,0.5]];portConstraint=eastwest;whiteSpace=wrap;html=1;" vertex="1" parent="FwMlWWRZnVb2PRxpXw4a-10">
          <mxGeometry y="348" width="590" height="122" as="geometry" />
        </mxCell>
        <mxCell id="FwMlWWRZnVb2PRxpXw4a-14" value="MyRC" style="swimlane;fontStyle=1;align=center;verticalAlign=top;childLayout=stackLayout;horizontal=1;startSize=26;horizontalStack=0;resizeParent=1;resizeParentMax=0;resizeLast=0;collapsible=1;marginBottom=0;whiteSpace=wrap;html=1;" vertex="1" parent="WIyWlLk6GJQsqaUBKTNV-1">
          <mxGeometry x="690" y="660" width="370" height="396" as="geometry" />
        </mxCell>
        <mxCell id="FwMlWWRZnVb2PRxpXw4a-26" value="" style="line;strokeWidth=1;fillColor=none;align=left;verticalAlign=middle;spacingTop=-1;spacingLeft=3;spacingRight=3;rotatable=0;labelPosition=right;points=[];portConstraint=eastwest;strokeColor=inherit;" vertex="1" parent="FwMlWWRZnVb2PRxpXw4a-14">
          <mxGeometry y="26" width="370" height="8" as="geometry" />
        </mxCell>
        <mxCell id="FwMlWWRZnVb2PRxpXw4a-15" value="model&amp;nbsp;&amp;nbsp;&amp;nbsp;&amp;nbsp;&amp;nbsp;&amp;nbsp;&amp;nbsp; # modelo ESN &lt;br&gt;readout&amp;nbsp;&amp;nbsp;&amp;nbsp;&amp;nbsp;&amp;nbsp; # si utilizamos reaout o no &amp;nbsp;&amp;nbsp;&amp;nbsp; &lt;br&gt;config&amp;nbsp;&amp;nbsp;&amp;nbsp;&amp;nbsp;&amp;nbsp;&amp;nbsp;&amp;nbsp;&amp;nbsp; # contenedor de la configuración del modelo&amp;nbsp; &lt;br&gt;readout_type&amp;nbsp;&amp;nbsp;&amp;nbsp; # tipo de readout a utilizar &amp;nbsp; &lt;br&gt;mts_rep&amp;nbsp;&amp;nbsp;&amp;nbsp;&amp;nbsp;&amp;nbsp;&amp;nbsp;&amp;nbsp;&amp;nbsp;&amp;nbsp;&amp;nbsp; # tipo de representación interna de los estados&lt;br&gt;w_ridge_embedding # parámetro regresión ridge readout&lt;br&gt;w_ridge&amp;nbsp;&amp;nbsp;&amp;nbsp;&amp;nbsp;&amp;nbsp;&amp;nbsp;&amp;nbsp;&amp;nbsp;&amp;nbsp; # parámetro regresión ridge readout&lt;br&gt;w_l2&amp;nbsp;&amp;nbsp;&amp;nbsp;&amp;nbsp;&amp;nbsp;&amp;nbsp;&amp;nbsp;&amp;nbsp;&amp;nbsp;&amp;nbsp; # parámetro regresión ridge readout&lt;br&gt;svm_C&amp;nbsp;&amp;nbsp;&amp;nbsp;&amp;nbsp;&amp;nbsp;&amp;nbsp;&amp;nbsp;&amp;nbsp;&amp;nbsp;&amp;nbsp;&amp;nbsp;&amp;nbsp;# parámetro regresión svn readout &lt;br&gt;svm_kernel&amp;nbsp;&amp;nbsp;&amp;nbsp;&amp;nbsp;&amp;nbsp;&amp;nbsp;&amp;nbsp; # parámetro regresión svn readout &lt;br&gt;svm_gamma&amp;nbsp;&amp;nbsp;&amp;nbsp;&amp;nbsp;&amp;nbsp; # parámetro regresión svn readout &lt;br&gt;mlp_layout&amp;nbsp;&amp;nbsp;&amp;nbsp;&amp;nbsp;&amp;nbsp;&amp;nbsp; # parámetro regresión mlp readout &lt;br&gt;num_epochs&amp;nbsp;&amp;nbsp;&amp;nbsp;&amp;nbsp;&amp;nbsp;  # parámetro regresión mlp readout &lt;br&gt;nonlinearity&amp;nbsp;&amp;nbsp;&amp;nbsp;&amp;nbsp;&amp;nbsp;  # parámetro regresión mlp readout &amp;nbsp;&amp;nbsp;&amp;nbsp;&amp;nbsp; &lt;br&gt;dimred_method&amp;nbsp;&amp;nbsp; #método de reducción dimensionalidad&lt;br&gt;n_dim&amp;nbsp;&amp;nbsp;&amp;nbsp;&amp;nbsp;&amp;nbsp;&amp;nbsp;&amp;nbsp;&amp;nbsp;&amp;nbsp; # número canales a redución&lt;br&gt;bidir&amp;nbsp;&amp;nbsp;&amp;nbsp;&amp;nbsp;&amp;nbsp;&amp;nbsp;&amp;nbsp;&amp;nbsp;&amp;nbsp;&amp;nbsp;&amp;nbsp;&amp;nbsp; # Si el RC es bidireccional o no a procesar entrada&lt;br&gt;&lt;div&gt;threshold # para obtener las clases predichas en el readout &amp;nbsp;&amp;nbsp;&amp;nbsp;&amp;nbsp;&amp;nbsp;&amp;nbsp;&amp;nbsp;&amp;nbsp; &lt;br&gt;&lt;/div&gt;&lt;div&gt;washout&amp;nbsp;&amp;nbsp;&amp;nbsp;&amp;nbsp; # número de transitorios a eliminar&lt;br&gt;&lt;/div&gt;" style="text;strokeColor=none;fillColor=none;align=left;verticalAlign=top;spacingLeft=4;spacingRight=4;overflow=hidden;rotatable=0;points=[[0,0.5],[1,0.5]];portConstraint=eastwest;whiteSpace=wrap;html=1;" vertex="1" parent="FwMlWWRZnVb2PRxpXw4a-14">
          <mxGeometry y="34" width="370" height="304" as="geometry" />
        </mxCell>
        <mxCell id="FwMlWWRZnVb2PRxpXw4a-27" value="" style="line;strokeWidth=1;fillColor=none;align=left;verticalAlign=middle;spacingTop=-1;spacingLeft=3;spacingRight=3;rotatable=0;labelPosition=right;points=[];portConstraint=eastwest;strokeColor=inherit;" vertex="1" parent="FwMlWWRZnVb2PRxpXw4a-14">
          <mxGeometry y="338" width="370" height="8" as="geometry" />
        </mxCell>
        <mxCell id="FwMlWWRZnVb2PRxpXw4a-17" value="&lt;div&gt;def __init__ (self, model,&amp;nbsp; config)&lt;/div&gt;&lt;div&gt;def fit (self, input_data, target_data = None)&lt;br&gt;&lt;/div&gt;&lt;div&gt;def fit_evaluate (self, Xte, Y_test)&lt;br&gt;&lt;/div&gt;" style="text;strokeColor=none;fillColor=none;align=left;verticalAlign=top;spacingLeft=4;spacingRight=4;overflow=hidden;rotatable=0;points=[[0,0.5],[1,0.5]];portConstraint=eastwest;whiteSpace=wrap;html=1;" vertex="1" parent="FwMlWWRZnVb2PRxpXw4a-14">
          <mxGeometry y="346" width="370" height="50" as="geometry" />
        </mxCell>
        <mxCell id="FwMlWWRZnVb2PRxpXw4a-20" value="1" style="endArrow=open;html=1;endSize=12;startArrow=diamondThin;startSize=14;startFill=0;edgeStyle=orthogonalEdgeStyle;align=left;verticalAlign=bottom;rounded=0;exitX=1;exitY=0.5;exitDx=0;exitDy=0;" edge="1" parent="WIyWlLk6GJQsqaUBKTNV-1" source="FwMlWWRZnVb2PRxpXw4a-11" target="FwMlWWRZnVb2PRxpXw4a-14">
          <mxGeometry x="-1" y="3" relative="1" as="geometry">
            <mxPoint x="420" y="870" as="sourcePoint" />
            <mxPoint x="500" y="830" as="targetPoint" />
          </mxGeometry>
        </mxCell>
        <mxCell id="FwMlWWRZnVb2PRxpXw4a-24" style="edgeStyle=orthogonalEdgeStyle;rounded=0;orthogonalLoop=1;jettySize=auto;html=1;exitX=0;exitY=0.5;exitDx=0;exitDy=0;" edge="1" parent="WIyWlLk6GJQsqaUBKTNV-1" source="FwMlWWRZnVb2PRxpXw4a-21" target="FwMlWWRZnVb2PRxpXw4a-11">
          <mxGeometry relative="1" as="geometry" />
        </mxCell>
        <mxCell id="FwMlWWRZnVb2PRxpXw4a-21" value="«interface»&lt;br&gt;&lt;b&gt;nn.Module&lt;/b&gt;" style="html=1;whiteSpace=wrap;" vertex="1" parent="WIyWlLk6GJQsqaUBKTNV-1">
          <mxGeometry x="670" y="585" width="110" height="50" as="geometry" />
        </mxCell>
        <mxCell id="FwMlWWRZnVb2PRxpXw4a-23" value="" style="endArrow=block;dashed=1;endFill=0;endSize=12;html=1;rounded=0;" edge="1" parent="WIyWlLk6GJQsqaUBKTNV-1">
          <mxGeometry width="160" relative="1" as="geometry">
            <mxPoint x="370" y="740" as="sourcePoint" />
            <mxPoint x="530" y="740" as="targetPoint" />
          </mxGeometry>
        </mxCell>
        <mxCell id="FwMlWWRZnVb2PRxpXw4a-28" value="base" style="shape=folder;fontStyle=1;spacingTop=10;tabWidth=40;tabHeight=14;tabPosition=left;html=1;whiteSpace=wrap;" vertex="1" parent="WIyWlLk6GJQsqaUBKTNV-1">
          <mxGeometry x="940" y="80" width="470" height="240" as="geometry" />
        </mxCell>
        <mxCell id="FwMlWWRZnVb2PRxpXw4a-30" value="eeg.py" style="shape=module;align=left;spacingLeft=20;align=center;verticalAlign=top;whiteSpace=wrap;html=1;" vertex="1" parent="WIyWlLk6GJQsqaUBKTNV-1">
          <mxGeometry x="940" y="150" width="100" height="50" as="geometry" />
        </mxCell>
        <mxCell id="FwMlWWRZnVb2PRxpXw4a-31" value="MyRC.py" style="shape=module;align=left;spacingLeft=20;align=center;verticalAlign=top;whiteSpace=wrap;html=1;" vertex="1" parent="WIyWlLk6GJQsqaUBKTNV-1">
          <mxGeometry x="1250" y="170" width="100" height="50" as="geometry" />
        </mxCell>
        <mxCell id="FwMlWWRZnVb2PRxpXw4a-33" value="Extractfeatures.py" style="shape=module;align=left;spacingLeft=20;align=center;verticalAlign=top;whiteSpace=wrap;html=1;" vertex="1" parent="WIyWlLk6GJQsqaUBKTNV-1">
          <mxGeometry x="940" y="290" width="160" height="50" as="geometry" />
        </mxCell>
        <mxCell id="FwMlWWRZnVb2PRxpXw4a-34" value="utils.py" style="shape=module;align=left;spacingLeft=20;align=center;verticalAlign=top;whiteSpace=wrap;html=1;" vertex="1" parent="WIyWlLk6GJQsqaUBKTNV-1">
          <mxGeometry x="1270" y="290" width="100" height="50" as="geometry" />
        </mxCell>
      </root>
    </mxGraphModel>
  </diagram>
</mxfile>
